<?xml version="1.0" standalone="no"?>
<!DOCTYPE svg PUBLIC "-//W3C//DTD SVG 20010904//EN"
 "http://www.w3.org/TR/2001/REC-SVG-20010904/DTD/svg10.dtd">
<svg version="1.0" xmlns="http://www.w3.org/2000/svg"
 width="68.000000pt" height="68.000000pt" viewBox="0 0 68.000000 68.000000"
 preserveAspectRatio="xMidYMid meet">

<g transform="translate(0.000000,68.000000) scale(0.100000,-0.100000)"
fill="#000000" stroke="none">
<path d="M225 569 c-66 -39 -123 -74 -126 -77 -4 -4 -9 -74 -13 -157 l-6 -150
129 -73 c71 -39 134 -72 141 -72 6 0 67 32 136 72 l124 72 0 152 0 152 -131
76 c-72 42 -131 76 -132 76 -1 -1 -56 -33 -122 -71z m235 -56 c54 -31 97 -60
94 -65 -3 -5 -22 -17 -43 -27 l-37 -20 -61 35 c-35 19 -68 31 -77 28 -22 -9
-13 -19 44 -50 28 -15 50 -31 50 -35 0 -5 -18 -18 -40 -29 l-41 -21 -53 31
c-29 16 -56 30 -60 30 -3 0 -6 -49 -6 -110 0 -60 -2 -110 -6 -110 -3 0 -23 10
-44 23 l-40 22 0 120 0 120 98 57 c53 32 103 58 110 58 7 0 57 -26 112 -57z
m100 -195 l0 -103 -40 -22 c-21 -13 -41 -23 -44 -23 -4 0 -6 46 -6 103 l0 102
38 22 c20 12 40 22 45 23 4 0 7 -46 7 -102z m-130 5 c0 -22 -9 -33 -40 -50
l-40 -21 0 27 c0 21 9 32 38 49 20 12 38 22 40 22 1 0 2 -12 2 -27z m0 -112
c0 -68 0 -69 -36 -90 -19 -12 -37 -21 -40 -21 -2 0 -4 31 -4 68 l0 68 38 22
c20 12 38 22 40 22 1 0 2 -31 2 -69z"/>
</g>
</svg>
